<svg width="24" height="24" viewBox="0 0 24 24" fill="none" xmlns="http://www.w3.org/2000/svg">
<g clip-path="url(#clip0_1685_134)">
<path d="M12 24C18.6274 24 24 18.6274 24 12C24 5.37258 18.6274 0 12 0C5.37258 0 0 5.37258 0 12C0 18.6274 5.37258 24 12 24Z" fill="white"/>
<path d="M12 23.5C18.3513 23.5 23.5 18.3513 23.5 12C23.5 5.64873 18.3513 0.5 12 0.5C5.64873 0.5 0.5 5.64873 0.5 12C0.5 18.3513 5.64873 23.5 12 23.5Z" stroke="#27AE60"/>
<path d="M11.6051 13.3636H13.1506L14.446 15.0682L14.7869 15.5227L16.7188 18.0909H15.1733L13.9006 16.3864L13.5824 15.9545L11.6051 13.3636ZM17.196 11.1818C17.196 12.4091 16.9744 13.4697 16.5312 14.3636C16.0881 15.2576 15.4801 15.947 14.7074 16.4318C13.9347 16.9167 13.0521 17.1591 12.0597 17.1591C11.0672 17.1591 10.1847 16.9167 9.41193 16.4318C8.6392 15.947 8.03125 15.2576 7.58807 14.3636C7.14489 13.4697 6.9233 12.4091 6.9233 11.1818C6.9233 9.95455 7.14489 8.89394 7.58807 8C8.03125 7.10606 8.6392 6.41667 9.41193 5.93182C10.1847 5.44697 11.0672 5.20455 12.0597 5.20455C13.0521 5.20455 13.9347 5.44697 14.7074 5.93182C15.4801 6.41667 16.0881 7.10606 16.5312 8C16.9744 8.89394 17.196 9.95455 17.196 11.1818ZM15.8324 11.1818C15.8324 10.1742 15.6638 9.32386 15.3267 8.63068C14.9934 7.9375 14.5407 7.41288 13.9688 7.05682C13.4006 6.70076 12.7642 6.52273 12.0597 6.52273C11.3551 6.52273 10.7169 6.70076 10.1449 7.05682C9.5767 7.41288 9.12405 7.9375 8.78693 8.63068C8.4536 9.32386 8.28693 10.1742 8.28693 11.1818C8.28693 12.1894 8.4536 13.0398 8.78693 13.733C9.12405 14.4261 9.5767 14.9508 10.1449 15.3068C10.7169 15.6629 11.3551 15.8409 12.0597 15.8409C12.7642 15.8409 13.4006 15.6629 13.9688 15.3068C14.5407 14.9508 14.9934 14.4261 15.3267 13.733C15.6638 13.0398 15.8324 12.1894 15.8324 11.1818Z" fill="#27AE60"/>
</g>
<defs>
<clipPath id="clip0_1685_134">
<rect width="24" height="24" fill="white"/>
</clipPath>
</defs>
</svg>
